# xmcd CD database file
#
# Track frame offsets:
#	150
#	17800
#	32100
#	51225
#	63275
#	73087
#	95425
#	110150
#	128550
#
# Disc length: 2002 seconds
#
# Revision: 0
# Processed by: cddbd v1.5.1PL2 Copyright (c) Steve Scherf et al.
# Submitted via: CDex 1.51
#
DISCID=7c07d009
DTITLE=World Standard - アロー！
DYEAR=1986
DGENRE=New Age
TTITLE0=愛のミラクル
TTITLE1=太陽は教えてくれない
TTITLE2=オアシスのなかで−ＳｈａＬａＬａ
TTITLE3=ニューヨーカーの子守歌
TTITLE4=ミラージュ
TTITLE5=デスァ・フィナードＮｏ．６
TTITLE6=サーカスの魚達
TTITLE7=青いレフア
TTITLE8=ピアニストの憂鬱
EXTD=YEAR: 1986
EXTT0=
EXTT1=
EXTT2=
EXTT3=
EXTT4=
EXTT5=
EXTT6=
EXTT7=
EXTT8=
PLAYORDER=
